<?xml version="1.0" standalone="no"?>
<!DOCTYPE svg PUBLIC "-//W3C//DTD SVG 20010904//EN"
 "http://www.w3.org/TR/2001/REC-SVG-20010904/DTD/svg10.dtd">
<svg version="1.0" xmlns="http://www.w3.org/2000/svg"
 width="1083.000000pt" height="1083.000000pt" viewBox="0 0 1083.000000 1083.000000"
 preserveAspectRatio="xMidYMid meet">
<metadata>
Created by potrace 1.11, written by Peter Selinger 2001-2013
</metadata>
<g transform="translate(0.000000,1083.000000) scale(0.100000,-0.100000)"
fill="#000000" stroke="none">
<path d="M710 8752 l0 -829 128 -6 c70 -4 190 -7 267 -7 l141 0 214 -183 c118
-101 753 -642 1410 -1202 657 -560 1199 -1021 1203 -1025 5 -4 -725 -682
-1621 -1506 -897 -825 -1630 -1502 -1629 -1505 1 -4 191 -215 422 -470 596
-657 644 -711 675 -742 l27 -29 129 116 c84 75 130 110 132 101 3 -12 24 -15
108 -15 l104 0 0 25 c0 23 4 25 40 25 33 0 40 3 40 20 0 13 7 20 20 20 13 0
20 7 20 20 0 17 7 20 45 20 38 0 45 3 45 20 0 13 7 20 20 20 13 0 20 7 20 20
0 13 7 20 20 20 13 0 20 7 20 20 0 13 7 20 20 20 15 0 20 7 20 25 0 18 5 25
20 25 13 0 20 7 20 20 0 15 7 20 25 20 18 0 25 5 25 20 0 17 7 20 40 20 33 0
40 3 40 20 0 13 7 20 20 20 13 0 20 7 20 20 0 13 7 20 20 20 13 0 20 7 20 20
0 13 7 20 20 20 15 0 20 7 20 25 0 20 5 25 25 25 18 0 25 5 25 20 0 13 7 20
20 20 13 0 20 7 20 20 0 13 7 20 20 20 13 0 20 7 20 20 0 13 7 20 20 20 13 0
20 7 20 20 0 13 7 20 20 20 13 0 20 7 20 20 0 13 7 20 20 20 15 0 20 7 20 25
0 20 5 25 25 25 18 0 25 5 25 20 0 17 7 20 40 20 33 0 40 3 40 20 0 13 7 20
20 20 13 0 20 7 20 20 0 13 7 20 20 20 13 0 20 7 20 20 0 13 7 20 20 20 13 0
20 7 20 20 0 15 7 20 25 20 20 0 25 5 25 25 0 18 5 25 20 25 13 0 20 7 20 20
0 13 7 20 20 20 13 0 20 7 20 20 0 13 7 20 20 20 13 0 20 7 20 20 0 13 7 20
20 20 13 0 20 7 20 20 0 13 7 20 20 20 13 0 20 7 20 20 0 15 7 20 25 20 20 0
25 5 25 25 0 23 4 25 40 25 33 0 40 3 40 20 0 13 7 20 20 20 13 0 20 7 20 20
0 13 7 20 20 20 13 0 20 7 20 20 0 13 7 20 20 20 13 0 20 7 20 20 0 15 7 20
25 20 18 0 25 5 25 20 0 13 7 20 20 20 15 0 20 7 20 25 0 18 5 25 20 25 13 0
20 7 20 20 0 13 7 20 20 20 13 0 20 7 20 20 0 13 7 20 20 20 13 0 20 7 20 20
0 13 7 20 20 20 13 0 20 7 20 20 0 17 7 20 45 20 38 0 45 3 45 20 0 13 7 20
20 20 15 0 20 7 20 25 0 18 5 25 20 25 13 0 20 7 20 20 0 13 7 20 20 20 13 0
20 7 20 20 0 13 7 20 20 20 13 0 20 7 20 20 0 15 7 20 25 20 18 0 25 5 25 20
0 13 7 20 20 20 13 0 20 7 20 20 0 13 7 20 20 20 15 0 20 7 20 25 0 18 5 25
20 25 13 0 20 7 20 20 0 13 7 20 20 20 13 0 20 7 20 20 0 13 7 20 20 20 13 0
20 7 20 20 0 17 7 20 45 20 38 0 45 3 45 20 0 13 7 20 20 20 13 0 20 7 20 20
0 13 7 20 20 20 15 0 20 7 20 25 0 18 5 25 20 25 13 0 20 7 20 20 0 13 7 20
20 20 13 0 20 7 20 20 0 15 7 20 25 20 18 0 25 5 25 20 0 13 7 20 20 20 13 0
20 7 20 20 0 17 7 20 40 20 33 0 40 3 40 20 0 13 7 20 20 20 15 0 20 7 20 25
0 18 5 25 20 25 13 0 20 7 20 20 0 17 7 20 45 20 38 0 45 3 45 20 0 17 7 20
40 20 33 0 40 3 40 20 0 19 7 20 106 20 l107 0 86 -72 c82 -69 880 -749 1306
-1113 1149 -982 1987 -1695 1995 -1695 5 0 50 47 100 105 l92 105 104 0 104 0
0 25 c0 23 4 25 40 25 33 0 40 3 40 20 0 15 7 20 25 20 18 0 25 5 25 20 0 13
7 20 20 20 13 0 20 7 20 20 0 13 7 20 20 20 13 0 20 7 20 20 0 13 7 20 20 20
13 0 20 7 20 20 0 13 7 20 20 20 17 0 20 7 20 45 0 38 3 45 20 45 13 0 20 7
20 20 0 15 7 20 25 20 18 0 25 5 25 20 0 13 7 20 20 20 17 0 20 7 20 40 0 33
3 40 20 40 19 0 20 7 20 146 l0 146 88 105 c48 58 97 118 110 134 l22 28 -287
248 c-511 440 -565 486 -748 643 -99 85 -182 157 -185 160 -3 3 -84 73 -180
155 -586 504 -1146 986 -1324 1140 -77 66 -178 154 -226 195 -48 41 -128 111
-178 155 l-91 80 -1 63 c0 55 2 62 20 62 17 0 20 7 20 45 0 38 3 45 20 45 17
0 20 7 20 40 0 33 3 40 20 40 13 0 20 7 20 20 0 15 7 20 25 20 18 0 25 5 25
20 0 13 7 20 20 20 13 0 20 7 20 20 0 13 7 20 20 20 15 0 20 7 20 25 0 18 5
25 20 25 13 0 20 7 20 20 0 13 7 20 20 20 13 0 20 7 20 20 0 13 7 20 20 20 13
0 20 7 20 20 0 15 7 20 25 20 18 0 25 5 25 20 0 13 7 20 20 20 13 0 20 7 20
20 0 13 7 20 20 20 15 0 20 7 20 25 0 18 5 25 20 25 13 0 20 7 20 20 0 13 7
20 20 20 13 0 20 7 20 20 0 17 7 20 45 20 38 0 45 3 45 20 0 13 7 20 20 20 13
0 20 7 20 20 0 13 7 20 20 20 13 0 20 7 20 20 0 13 7 20 20 20 15 0 20 7 20
25 0 18 5 25 20 25 13 0 20 7 20 20 0 13 7 20 20 20 13 0 20 7 20 20 0 17 7
20 45 20 38 0 45 3 45 20 0 13 7 20 20 20 13 0 20 7 20 20 0 13 7 20 20 20 13
0 20 7 20 20 0 13 7 20 20 20 15 0 20 7 20 25 0 18 5 25 20 25 13 0 20 7 20
20 0 15 7 20 25 20 18 0 25 5 25 20 0 17 7 20 40 20 33 0 40 3 40 20 0 13 7
20 20 20 13 0 20 7 20 20 0 13 7 20 20 20 13 0 20 7 20 20 0 13 7 20 20 20 15
0 20 7 20 25 0 20 5 25 25 25 18 0 25 5 25 20 0 13 7 20 20 20 13 0 20 7 20
20 0 17 7 20 40 20 33 0 40 3 40 20 0 13 7 20 20 20 13 0 20 7 20 20 0 13 7
20 20 20 13 0 20 7 20 20 0 15 7 20 25 20 20 0 25 5 25 25 0 18 5 25 20 25 13
0 20 7 20 20 0 13 7 20 20 20 13 0 20 7 20 20 0 17 7 20 40 20 33 0 40 3 40
20 0 13 7 20 20 20 13 0 20 7 20 20 0 15 7 20 25 20 18 0 25 5 25 20 0 13 7
20 20 20 15 0 20 7 20 25 0 18 5 25 20 25 13 0 20 7 20 20 0 13 7 20 20 20 13
0 20 7 20 20 0 17 7 20 40 20 33 0 40 3 40 20 0 15 7 20 25 20 18 0 25 5 25
20 0 13 7 20 20 20 13 0 20 7 20 20 0 13 7 20 20 20 15 0 20 7 20 25 0 18 5
25 20 25 13 0 20 7 20 20 0 17 7 20 40 20 33 0 40 3 40 20 0 15 7 20 25 20 18
0 25 5 25 20 0 13 7 20 20 20 13 0 20 7 20 20 0 17 7 20 40 20 33 0 40 3 40
20 0 17 7 20 40 20 36 0 40 3 40 25 0 23 4 25 45 25 38 0 45 3 45 20 0 17 7
20 40 20 33 0 40 3 40 20 0 17 7 20 40 20 33 0 40 3 40 20 0 17 7 20 45 20 38
0 45 3 45 20 0 19 7 20 105 20 l105 0 0 190 c0 183 1 190 20 190 19 0 20 7 20
125 0 118 -1 125 -20 125 -19 0 -20 7 -20 143 0 79 -3 313 -7 520 l-6 377
-4684 0 -4683 0 0 -828z m5960 -902 c0 -17 7 -20 51 -20 31 0 48 -4 44 -10
-13 -20 -1423 -1160 -1436 -1160 -7 0 -136 108 -570 476 -527 448 -469 393
-469 442 0 38 2 42 25 42 18 0 25 5 25 20 0 13 7 20 20 20 13 0 20 7 20 20 0
13 7 20 20 20 15 0 20 7 20 25 0 18 5 25 20 25 13 0 20 7 20 20 0 18 7 20 65
20 58 0 65 2 65 20 0 18 7 20 60 20 53 0 60 2 60 20 0 20 7 20 980 20 973 0
980 0 980 -20z"/>
</g>
</svg>
